# xmcd
#
# Track frame offsets: 
#        150
#        35244
#        52669
#        74695
#        99392
#        145687
#        166668
#        197864
#        230081
#        264182
#
# Disc length: 3758 seconds
#
# Revision: 0
# Processed by: cddbd v1.5.1PL2 Copyright (c) Steve Scherf et al.
# Submitted via: ExactAudioCopy v0.95b3
#
DISCID=870eac0a
DTITLE=Terry "Harmonica" Bean - Live at The Briggs Farm Blues Fest 200
DTITLE=5
DYEAR=2005
DGENRE=Blues
TTITLE0=Big Boss Man
TTITLE1=They Call Me Terry
TTITLE2=Love Me or Leave Me
TTITLE3=Same Old Blues
TTITLE4=Sky is Cryin
TTITLE5=Thrill is Gone
TTITLE6=Garbage Man
TTITLE7=Rock Me Baby
TTITLE8=Blues Somewhere
TTITLE9=Just Like A Woman
EXTD=
EXTT0=
EXTT1=
EXTT2=
EXTT3=
EXTT4=
EXTT5=
EXTT6=
EXTT7=
EXTT8=
EXTT9=
PLAYORDER=
